# xmcd
#
# Track frame offsets:
# 150
# 11274
# 24234
# 35955
# 46198
# 61274
# 74600
# 87888
# 100517
# 114354
# 127329
# 136939
# 148611
# 157909
# 171545
# 183309
# 198276
# 209054
# 221287
# 232394
# 244593
# 255276
# 264767
# 275213
# 283714
# 296885
#
# Disc length: 4180 seconds
#
#
# Revision: 0
# Processed by: cddbd v1.5.1PL2 Copyright (c) Steve Scherf et al.
# Submitted via: FreeRIP 2.945 
#
DISCID=8810521a
DTITLE=The Spirit of Country - Various - The Spirit of Country
DYEAR=1900
DGENRE=Country
TTITLE0=King of The Road - Roger Miller
TTITLE1=North to Alaska - Johnny Horton
TTITLE2=Ring of Fire - Johnny Cash
TTITLE3=Green Green Grass of Home - Porter Wagoner
TTITLE4=Tom Dooley - The Kingston Trio
TTITLE5=The Man Who Shot Liberty Valance - Gene Pitney
TTITLE6=Ruby, don't Take Your Love To Town - Kenny Rogers and The First Edition
TTITLE7=High Noon - Frankie Laine
TTITLE8=Miller's Cave - Bobby Bare
TTITLE9=Wolverton Mountain - Calude King
TTITLE10=Billy Bayou - Jim Reeves
TTITLE11=The Battle of New Orleans - Johnny Horton
TTITLE12=Rawhide - Frankie Laine
TTITLE13=Big Bad John - Jimmy Dean
TTITLE14=Skip A Rope - Henson Cargill
TTITLE15=Me and Bobby McGee - Roger Miller
TTITLE16=Sixteen Ton - Frankie Laine
TTITLE17=Take This Job and Shove It - Johnny Paycheck
TTITLE18=Sally Was A Good Old Girl - Waylon Jennings
TTITLE19=Mexican Joe - Jim Reeves
TTITLE20=Oh Lonesome Me - Don Gibson
TTITLE21=Tippy Toeing - The Harden Trio
TTITLE22=Lousiana Saturday Night - Mel McDaniel
TTITLE23=Rocky Top - Billie Jo Spears
TTITLE24=Jambalaya - Hank Williams
TTITLE25=Ghost Riders in The Sky - Johnny Cash
EXTD=
EXTT0=
EXTT1=
EXTT2=
EXTT3=
EXTT4=
EXTT5=
EXTT6=
EXTT7=
EXTT8=
EXTT9=
EXTT10=
EXTT11=
EXTT12=
EXTT13=
EXTT14=
EXTT15=
EXTT16=
EXTT17=
EXTT18=
EXTT19=
EXTT20=
EXTT21=
EXTT22=
EXTT23=
EXTT24=
EXTT25=
PLAYORDER=
